<svg width="32" height="32" viewBox="0 0 32 32" fill="none" xmlns="http://www.w3.org/2000/svg">
  <circle cx="16" cy="16" r="14" fill="#FDFBF7" stroke="#57534E" stroke-width="1.5"/>
  <path d="M10 14C10 12.8954 10.8954 12 12 12C13.1046 12 14 12.8954 14 14C14 15.1046 13.1046 16 12 16C10.8954 16 10 15.1046 10 14Z" fill="#57534E"/>
  <path d="M18 14C18 12.8954 18.8954 12 20 12C21.1046 12 22 12.8954 22 14C22 15.1046 21.1046 16 20 16C18.8954 16 18 15.1046 18 14Z" fill="#57534E"/>
  <path d="M14 18C14 16.8954 14.8954 16 16 16C17.1046 16 18 16.8954 18 18C18 19.1046 17.1046 20 16 20C14.8954 20 14 19.1046 14 18Z" fill="#57534E"/>
  <circle cx="12" cy="14" r="1" fill="#FDFBF7"/>
  <circle cx="20" cy="14" r="1" fill="#FDFBF7"/>
  <circle cx="16" cy="18" r="1" fill="#FDFBF7"/>
</svg>
